<?xml version="1.0" encoding="UTF-8"?>
<svg id="Layer_1" data-name="Layer 1" xmlns="http://www.w3.org/2000/svg" viewBox="0 0 793.99 793.99">
  <path d="M793.99,397.99c-.53,218.8-178.06,396-396.99,396S0,616.25,0,396.99,177.2.53,396,0v150c-65.61.25-127.24,25.92-173.66,72.33-46.65,46.66-72.34,108.68-72.34,174.66s25.69,128,72.34,174.66c46.66,46.65,108.68,72.34,174.66,72.34s128-25.69,174.66-72.34c46.41-46.42,72.08-108.05,72.33-173.66h150Z" style="fill: #fff; stroke-width: 0px;"/>
  <path d="M643.99,397.99c-.25,65.61-25.92,127.24-72.33,173.66-46.66,46.65-108.68,72.34-174.66,72.34s-128-25.69-174.66-72.34c-46.65-46.66-72.34-108.68-72.34-174.66s25.69-128,72.34-174.66c46.42-46.41,108.05-72.08,173.66-72.33V0C177.2.53,0,178.06,0,396.99s177.74,397,397,397,396.46-177.2,396.99-396h-150Z" style="fill: #fff; stroke-width: 0px;"/>
</svg>